<?xml version="1.0" encoding="utf-8"?>
<!-- Generator: Adobe Illustrator 21.1.0, SVG Export Plug-In . SVG Version: 6.00 Build 0)  -->
<svg version="1.1" id="Layer_1" xmlns="http://www.w3.org/2000/svg" xmlns:xlink="http://www.w3.org/1999/xlink" x="0px" y="0px"
	 viewBox="0 0 390 390" style="enable-background:new 0 0 390 390;" xml:space="preserve">
<style type="text/css">
	.st0{fill:none;}
	.st1{fill:#3657A4;}
	.st2{fill:#58B259;}
	.st3{opacity:0.6;}
	.st4{fill:#AACC67;}
</style>
<g>
	<g id="Layer_1_1_">
		<path class="st0" d="M49.3,75.1h286v214.5h-286V75.1z"/>
		<path class="st1" d="M192.3,269.8c-48.3,0-87.4-39.1-87.4-87.4c0-48.3,39.1-87.4,87.4-87.4c48.3,0,87.4,39.1,87.4,87.4
			C279.7,230.6,240.6,269.8,192.3,269.8z"/>
		<path class="st2" d="M117.4,137.7l22,22.6l-8,17.9l-1.7,13.2l-17.9,14l14.3,20.4l6.9,20.4l-1.2-0.7c-17.4-16.8-26.7-39.1-27-63.2
			c0.1-15.6,4.1-31.2,12.2-44.6H117.4z"/>
		<path class="st2" d="M181.8,155l-20.2,17.7l6.9,20l19.5,13.3l3.2,13.8l1.3,22.9l18.6,5.9l16.2-31.2l2.2-40.3l-25.3-7l-4.7-15.1
			H181.8"/>
		<path class="st2" d="M204.1,113.8l3,13.2l7.7-3.9L204.1,113.8"/>
		<path class="st2" d="M245.7,116l3.8,0.2c14.5,12.6,24.6,29.7,28.4,48.5h-5.8l-2.5-11l-18.5-2.8l1.8,9.9l1.1,3.2l-8.1,2.1l2.7-3.3
			l-3.4-6.4l-4.6,2.1l-20.9,1.7l-17.1-6.6l-2.2-12.7l12.1-6.1l5.8-8l5.8-7.2l14,3.3L245.7,116z"/>
		<path class="st2" d="M254.4,164l-0.3,0.2l0-0.1L254.4,164z"/>
	</g>
</g>
<g class="st3">
	<g>
		<path class="st4" d="M192.3,19.8c95.8,0,174,75.5,178.3,170.3l18.8-0.9C384.6,84.5,298.2,1,192.3,1c0,0,0,0,0,0L192.3,19.8
			C192.3,19.8,192.3,19.8,192.3,19.8z"/>
		<path class="st4" d="M192.3,48c37.2,0,71.3,13.5,97.5,35.9L302,69.6c-29.5-25.2-67.8-40.4-109.7-40.4c0,0,0,0,0,0L192.3,48
			C192.3,48,192.3,48,192.3,48z"/>
		<path class="st4" d="M192.3,76.1c5.6,0,11.1,0.4,16.5,1.1l2.5-18.6c-6.2-0.8-12.6-1.3-19.1-1.3c0,0,0,0,0,0L192.3,76.1
			C192.3,76.1,192.3,76.1,192.3,76.1z"/>
	</g>
</g>
</svg>
