<svg width="2048" height="1024" viewBox="0 0 2048 1024" xmlns="http://www.w3.org/2000/svg"><title>ISO 9001-2015 Logo</title><g fill="none" fill-rule="evenodd"><path d="M0 80.005C0 35.819 35.817 0 80.009 0H1967.99C2012.18 0 2048 35.826 2048 80.005v863.99c0 44.186-35.817 80.005-80.009 80.005H80.01C35.82 1024 0 988.174 0 943.995V80.005z" fill="#FFF"/><path d="M32 32h960l1.305 255.799c-75.74 69.238-154.93 158.93-237.57 269.076-135.349 180.396-229.26 326.809-281.731 439.238L32 992V32z" fill="#0C3C5B"/><path d="M16 80.005v863.99C16 979.34 44.66 1008 80.009 1008H1967.99c35.354 0 64.009-28.655 64.009-64.005V80.005C2032 44.66 2003.34 16 1967.991 16H80.01C44.655 16 16 44.655 16 80.005z" stroke="#0C3C5B" stroke-width="32"/><path d="M1024 32H896.956C792.863 134.321 685.615 262.115 592.457 381.525 439.064 578.144 323.873 752.029 323.873 752.029 181.07 553.356 36.753 479.952 0 463.053v319.97C120.793 854.386 214.292 965.543 273.425 1024h96.86C627.134 636.525 866.742 389.528 1024 261.558V32z" fill="#FFF"/><g fill="#0C3C5B"><path d="M933.866 799.14c-7.567 7.735-15.848 11.603-24.844 11.603-13.956 0-24.95-5.612-32.978-16.836-8.03-11.224-12.044-26.21-12.044-44.96 0-12.106 2.27-23.183 6.81-33.23 4.54-10.047 10.867-17.845 18.98-23.394 8.113-5.549 17.172-8.323 27.177-8.323 10.341 0 19.547 3.069 27.619 9.206 8.07 6.138 14.334 14.944 18.79 26.42 4.456 11.477 6.684 24.53 6.684 39.159v12.99c0 31.275-6.873 55.72-20.619 73.333-13.746 17.614-33.23 26.589-58.453 26.925h-3.657v-30.771h2.396c13.956-.084 24.445-3.7 31.465-10.846s11.245-17.571 12.674-31.276zm-15.764-16.394c6.894 0 12.317-4.708 16.269-14.125v-16.394c0-12.023-1.64-21.46-4.919-28.312-3.279-6.853-7.524-10.279-12.737-10.279-5.129 0-9.27 3.384-12.422 10.152-3.153 6.768-4.73 15.029-4.73 24.781 0 10.594 1.64 18.938 4.919 25.034 3.279 6.095 7.819 9.143 13.62 9.143zm178.827 11.476c0 25.39-4.603 44.812-13.809 58.264-9.206 13.452-22.343 20.178-39.41 20.178-16.9 0-29.952-6.537-39.158-19.61-9.206-13.074-13.977-31.802-14.314-56.184v-34.68c0-25.307 4.582-44.665 13.747-58.075 9.164-13.41 22.321-20.115 39.473-20.115 17.151 0 30.309 6.642 39.473 19.926 9.164 13.284 13.83 32.242 13.998 56.876v33.42zm-35.816-37.203c0-14.461-1.429-25.307-4.287-32.537-2.859-7.23-7.315-10.846-13.368-10.846-11.35 0-17.236 13.242-17.656 39.726v45.778c0 14.798 1.45 25.811 4.35 33.042 2.901 7.23 7.42 10.846 13.558 10.846 5.801 0 10.11-3.384 12.926-10.153 2.817-6.768 4.31-17.13 4.477-31.086v-44.77zm161.424 37.203c0 25.39-4.603 44.812-13.81 58.264-9.205 13.452-22.342 20.178-39.41 20.178-16.898 0-29.95-6.537-39.157-19.61-9.206-13.074-13.978-31.802-14.314-56.184v-34.68c0-25.307 4.582-44.665 13.746-58.075 9.165-13.41 22.322-20.115 39.474-20.115 17.15 0 30.308 6.642 39.473 19.926 9.164 13.284 13.83 32.242 13.998 56.876v33.42zm-35.816-37.203c0-14.461-1.429-25.307-4.288-32.537-2.858-7.23-7.314-10.846-13.367-10.846-11.35 0-17.236 13.242-17.656 39.726v45.778c0 14.798 1.45 25.811 4.35 33.042 2.901 7.23 7.42 10.846 13.558 10.846 5.8 0 10.11-3.384 12.926-10.153 2.817-6.768 4.31-17.13 4.477-31.086v-44.77zm123.622 113.123h-35.816V729.905l-34.933 13.494v-29.763l66.965-27.366h3.784v183.872zm49.35-29.69c0-5.718 1.913-10.426 5.738-14.125 3.826-3.7 8.807-5.55 14.945-5.55 5.969 0 10.93 1.83 14.88 5.487 3.952 3.657 5.928 8.386 5.928 14.187 0 5.886-1.997 10.615-5.99 14.188-3.994 3.573-8.933 5.36-14.818 5.36-5.97 0-10.91-1.808-14.819-5.423-3.91-3.615-5.864-8.324-5.864-14.125zm0-103.16c0-5.718 1.913-10.426 5.738-14.125 3.826-3.7 8.807-5.55 14.945-5.55 5.969 0 10.93 1.83 14.88 5.487 3.952 3.657 5.928 8.386 5.928 14.187 0 5.886-1.997 10.615-5.99 14.188-3.994 3.573-8.933 5.36-14.818 5.36-5.97 0-10.91-1.808-14.819-5.423-3.91-3.615-5.864-8.323-5.864-14.125zm181.404 132.85h-108.205v-25.223l49.689-63.182c6.305-8.744 10.95-16.416 13.935-23.015 2.985-6.6 4.477-12.927 4.477-18.98 0-8.156-1.408-14.545-4.225-19.17-2.816-4.624-6.873-6.936-12.17-6.936-5.8 0-10.404 2.69-13.809 8.072-3.405 5.38-5.108 12.947-5.108 22.7h-35.815c0-11.266 2.333-21.565 6.999-30.898 4.666-9.332 11.224-16.583 19.673-21.754 8.45-5.17 18.013-7.756 28.69-7.756 16.396 0 29.112 4.519 38.15 13.557s13.557 21.88 13.557 38.527c0 10.342-2.501 20.83-7.504 31.465-5.002 10.636-14.061 23.73-27.177 39.284l-23.583 33.672h62.426v29.637zm124.094-75.92c0 25.39-4.603 44.812-13.81 58.264-9.205 13.452-22.342 20.178-39.41 20.178-16.898 0-29.95-6.537-39.157-19.61-9.206-13.074-13.978-31.802-14.314-56.184v-34.68c0-25.307 4.582-44.665 13.746-58.075 9.165-13.41 22.322-20.115 39.473-20.115 17.152 0 30.31 6.642 39.474 19.926 9.164 13.284 13.83 32.242 13.998 56.876v33.42zm-35.816-37.203c0-14.461-1.43-25.307-4.288-32.537-2.858-7.23-7.314-10.846-13.368-10.846-11.35 0-17.235 13.242-17.655 39.726v45.778c0 14.798 1.45 25.811 4.35 33.042 2.901 7.23 7.42 10.846 13.558 10.846 5.8 0 10.11-3.384 12.926-10.153 2.817-6.768 4.309-17.13 4.477-31.086v-44.77zm123.622 113.123h-35.816V729.905l-34.933 13.494v-29.763l66.965-27.366h3.784v183.872zm31.339-90.297l9.08-93.323h88.909v30.52h-59.651l-3.28 39.346c6.895-4.624 14-6.936 21.314-6.936 15.133 0 26.799 5.381 34.996 16.143 8.197 10.761 12.296 25.979 12.296 45.652 0 18.413-4.876 33.252-14.629 44.518-9.753 11.266-22.784 16.899-39.095 16.899-9.668 0-18.622-2.291-26.862-6.873-8.24-4.582-14.734-10.95-19.484-19.106-4.75-8.156-7.167-17.404-7.252-27.745h35.312c.588 7.65 2.48 13.578 5.675 17.782 3.195 4.204 7.314 6.306 12.359 6.306 5.885 0 10.425-2.838 13.62-8.513 3.195-5.675 4.792-14.146 4.792-25.412 0-10.593-1.912-18.58-5.738-23.961-3.825-5.38-9.185-8.071-16.08-8.071-6.725 0-11.938 2.312-15.637 6.936l-2.27 3.153-28.375-7.315zM1232.982 566.385H1152v-408.77h80.982v408.77zm237.437-107.246c0-16.658-4.177-29.245-12.533-37.76-8.355-8.517-23.55-17.36-45.587-26.531-40.215-15.535-69.137-33.737-86.766-54.606-17.629-20.87-26.443-45.528-26.443-73.977 0-34.439 11.982-62.092 35.946-82.962C1359 162.434 1389.436 152 1426.347 152c24.607 0 46.551 5.287 65.833 15.862 19.281 10.575 34.11 25.502 44.485 44.78 10.375 19.278 15.563 41.176 15.563 65.695h-80.707c0-19.091-3.994-33.643-11.982-43.657-7.988-10.013-19.511-15.02-34.569-15.02-14.14 0-25.158 4.258-33.054 12.774-7.896 8.517-11.844 19.98-11.844 34.392 0 11.23 4.407 21.384 13.221 30.461 8.815 9.078 24.423 18.483 46.827 28.216 39.114 14.412 67.53 32.098 85.251 53.061 17.72 20.963 26.581 47.634 26.581 80.014 0 35.561-11.11 63.355-33.33 83.382C1496.404 561.987 1466.197 572 1428 572c-25.892 0-49.489-5.428-70.79-16.283-21.302-10.856-37.966-26.39-49.994-46.605-12.028-20.214-18.042-44.077-18.042-71.59h81.257c0 23.582 4.5 40.708 13.497 51.376 8.998 10.669 23.689 16.003 44.072 16.003 28.28 0 42.42-15.254 42.42-45.762zM1888 398.779c0 54.839-12.716 97.419-38.15 127.74-25.433 30.32-60.736 45.481-105.91 45.481-44.99 0-80.34-15.02-106.048-45.06-25.708-30.04-38.746-72.106-39.114-126.197v-69.906c0-56.15 12.763-99.993 38.288-131.53C1662.59 167.768 1698.032 152 1743.389 152c44.623 0 79.789 15.488 105.497 46.464 25.709 30.976 38.747 74.445 39.114 130.408v69.906zm-81.257-68.504c0-36.871-5.142-64.291-15.426-82.259-10.283-17.968-26.259-26.952-47.928-26.952-21.485 0-37.369 8.657-47.652 25.97-10.284 17.312-15.61 43.656-15.977 79.03v72.714c0 35.749 5.234 62.092 15.701 79.03 10.467 16.94 26.627 25.409 48.48 25.409 21.117 0 36.817-8.282 47.1-24.847 10.284-16.564 15.518-42.252 15.702-77.065v-71.03z"/></g></g></svg>