<?xml version="1.0" encoding="utf-8"?>
<!-- Generator: Adobe Illustrator 21.1.0, SVG Export Plug-In . SVG Version: 6.00 Build 0)  -->
<svg version="1.1" id="Layer_1" xmlns="http://www.w3.org/2000/svg" xmlns:xlink="http://www.w3.org/1999/xlink" x="0px" y="0px"
	 viewBox="0 0 350 310" style="enable-background:new 0 0 350 310;" xml:space="preserve">
<style type="text/css">
	.st0{fill:#568C3F;}
	.st1{fill:#7CB542;}
	.st2{fill:#9BC967;}
	.st3{fill:#578C3F;}
	.st4{fill:#336933;}
</style>
<g>
	<g>
		<path class="st0" d="M230.6,51c5.3-22.3,8.6-41.4,8.4-47.3c0-0.9,0.8-1.6,1.7-1.4l30.6,7.2c0.9,0.2,1.3,1.2,0.9,2
			c-2.8,5.2-8.3,23.7-13.6,46.1c-5.3,22.3-8.6,41.4-8.4,47.3c0,0.9-0.8,1.6-1.7,1.4l-30.8-9.4c-0.9-0.2-1.3-1.2-0.9-2
			C219.6,89.7,225.3,73.4,230.6,51z"/>
		<path class="st0" d="M206.9,151.8c5.3-22.3,8.4-43.6,8.2-49.5c0-0.9,0.8-1.6,1.7-1.4l30.8,9.4c0.9,0.2,1.3,1.2,0.9,2
			c-2.8,5.2-8.3,23.7-13.6,46.1c-5.3,22.3-8.6,41.4-8.4,47.3c0,0.9-0.8,1.6-1.7,1.4l-31.7-5.3c-0.9-0.2-1.3-1.2-0.9-2
			C194.9,194.6,201.6,174.1,206.9,151.8z"/>
		<path class="st0" d="M183.2,252.5c5.3-22.3,7.4-39.5,7.3-45.4c0-0.9,0.8-1.6,1.7-1.4l31.7,5.3c0.9,0.2,1.3,1.2,0.9,2
			c-2.8,5.2-8.3,23.7-13.6,46.1c-5.3,22.3-8.6,41.4-8.4,47.3c0,0.9-0.8,1.6-1.7,1.4l-30.6-7.2c-0.9-0.2-1.3-1.2-0.9-2
			C172.4,293.4,177.9,274.9,183.2,252.5z"/>
	</g>
	<g>
		<path class="st1" d="M191.2,51.5c0-22.9,1.1-42.3,2.7-47.9c0.2-0.9-0.4-1.7-1.3-1.7h-31.4c-0.9,0-1.5,0.8-1.3,1.7
			c1.5,5.7,2.7,25,2.7,47.9c0,22.9-1.1,42.3-2.7,47.9c-0.2,0.9,0.4,1.7,1.3,1.7l32.1-2.1c0.9,0,1.5-0.8,1.3-1.7
			C193.1,91.7,191.2,74.4,191.2,51.5z"/>
		<path class="st1" d="M191.2,155c0-22.9,1.8-44.4,3.3-50c0.2-0.9-0.4-1.7-1.3-1.7l-32.1,2.1c-0.9,0-1.5,0.8-1.3,1.7
			c1.5,5.7,2.7,25,2.7,47.9c0,22.9-1.1,42.3-2.7,47.9c-0.2,0.9,0.4,1.7,1.3,1.7l32.1,2.1c0.9,0,1.5-0.8,1.3-1.7
			C193.1,199.4,191.2,177.9,191.2,155z"/>
		<path class="st1" d="M191.2,258.5c0-22.9,1.8-40.2,3.3-45.8c0.2-0.9-0.4-1.7-1.3-1.7l-32.1-2.1c-0.9,0-1.5,0.8-1.3,1.7
			c1.5,5.7,2.7,25,2.7,47.9c0,22.9-1.1,42.3-2.7,47.9c-0.2,0.9,0.4,1.7,1.3,1.7h31.4c0.9,0,1.5-0.8,1.3-1.7
			C192.4,300.8,191.2,281.4,191.2,258.5z"/>
	</g>
	<g>
		<path class="st2" d="M124.2,51c-5.3-22.3-8.6-41.4-8.4-47.3c0-0.9-0.8-1.6-1.7-1.4L83.5,9.6c-0.9,0.2-1.3,1.2-0.9,2
			c2.8,5.2,8.3,23.7,13.6,46.1c5.3,22.3,8.6,41.4,8.4,47.3c0,0.9,0.8,1.6,1.7,1.4l30.8-9.4c0.9-0.2,1.3-1.2,0.9-2
			C135.1,89.7,129.4,73.4,124.2,51z"/>
		<path class="st2" d="M147.9,151.8c-5.3-22.3-8.4-43.6-8.2-49.5c0-0.9-0.8-1.6-1.7-1.4l-30.8,9.4c-0.9,0.2-1.3,1.2-0.9,2
			c2.8,5.2,8.3,23.7,13.6,46.1c5.3,22.3,8.6,41.4,8.4,47.3c0,0.9,0.8,1.6,1.7,1.4l31.7-5.3c0.9-0.2,1.3-1.2,0.9-2
			C159.8,194.6,153.1,174.1,147.9,151.8z"/>
		<path class="st2" d="M171.6,252.5c-5.3-22.3-7.4-39.5-7.3-45.4c0-0.9-0.8-1.6-1.7-1.4l-31.7,5.3c-0.9,0.2-1.3,1.2-0.9,2
			c2.8,5.2,8.3,23.7,13.6,46.1c5.3,22.3,8.6,41.4,8.4,47.3c0,0.9,0.8,1.6,1.7,1.4l30.6-7.2c0.9-0.2,1.3-1.2,0.9-2
			C182.4,293.4,176.8,274.9,171.6,252.5z"/>
	</g>
	<path class="st3" d="M2.1,85L2.1,85L2.1,85c31.3-7.7,76.6,2.9,101.3,23.6h0h0C72.1,116.3,26.7,105.7,2.1,85z"/>
	<path class="st3" d="M61.9,218.9L61.9,218.9L61.9,218.9c16.5-14.8,46.1-19.2,66.2-9.9h0h0C111.7,223.8,82,228.2,61.9,218.9z"/>
	<path class="st3" d="M79.1,252.5L79.1,252.5L79.1,252.5c8-18.1,30.4-35.3,49.9-38.5l0,0l0,0C121,232.1,98.7,249.3,79.1,252.5z"/>
	<path class="st3" d="M51.2,169.2L51.2,169.2L51.2,169.2c7.9-22,32.6-45.1,55-51.6l0,0l0,0C98.2,139.6,73.6,162.7,51.2,169.2z"/>
	<path class="st3" d="M10.5,141.3L10.5,141.3L10.5,141.3c17.1-15.9,70.6-31.3,93.6-26.9l0,0l0,0C87,130.3,33.5,145.7,10.5,141.3z"/>
	<path class="st4" d="M350.4,85L350.4,85L350.4,85c-31.3-7.7-76.6,2.9-101.3,23.6h0h0C280.4,116.3,325.7,105.7,350.4,85z"/>
	<path class="st4" d="M290.6,218.9L290.6,218.9L290.6,218.9c-16.5-14.8-46.1-19.2-66.2-9.9h0h0C240.8,223.8,270.5,228.2,290.6,218.9
		z"/>
	<path class="st4" d="M273.3,252.5L273.3,252.5L273.3,252.5c-8-18.1-30.4-35.3-49.9-38.5l0,0l0,0
		C231.4,232.1,253.8,249.3,273.3,252.5z"/>
	<path class="st4" d="M301.3,169.2L301.3,169.2L301.3,169.2c-7.9-22-32.6-45.1-55-51.6l0,0l0,0C254.3,139.6,278.9,162.7,301.3,169.2
		z"/>
	<path class="st4" d="M341.9,141.3L341.9,141.3L341.9,141.3c-17.1-15.9-70.6-31.3-93.6-26.9h0h0C265.4,130.3,319,145.7,341.9,141.3z
		"/>
</g>
</svg>
