<?xml version="1.0" encoding="utf-8"?>
<!-- Generator: Adobe Illustrator 21.1.0, SVG Export Plug-In . SVG Version: 6.00 Build 0)  -->
<svg version="1.1" id="Layer_1" xmlns="http://www.w3.org/2000/svg" xmlns:xlink="http://www.w3.org/1999/xlink" x="0px" y="0px"
	 viewBox="0 0 390 390" style="enable-background:new 0 0 390 390;" xml:space="preserve">
<style type="text/css">
	.st0{opacity:0.7;fill:#95C11F;}
	.st1{clip-path:url(#SVGID_2_);fill-rule:evenodd;clip-rule:evenodd;}
</style>
<g>
	<path class="st0" d="M389,195.4C389,87.5,301.5,0,193.6,0v21.7c95.9,0,173.7,77.8,173.7,173.7c0,90.8-69.8,165.4-158.6,173
		l1.9,21.6C310.5,381.4,389,297.6,389,195.4z"/>
	<path class="st0" d="M334.7,195.4h21.7c0-89.9-72.9-162.8-162.8-162.8v21.7C271.6,54.3,334.7,117.4,334.7,195.4z"/>
	<path class="st0" d="M241.9,98.2l9.7-19.4c-17.5-8.7-37.1-13.6-58-13.6v21.7C211,86.8,227.4,90.9,241.9,98.2z"/>
	<g>
		<g>
			<g>
				<g>
					<defs>
						<rect id="SVGID_1_" x="33" y="80.1" width="321.3" height="229.7"/>
					</defs>
					<clipPath id="SVGID_2_">
						<use xlink:href="#SVGID_1_"  style="overflow:visible;"/>
					</clipPath>
					<path class="st1" d="M249.2,166.6l16.5,27.3c1.5,2.4,2.4,4.6,2.7,6.8c0.3,2.3,0.1,4.6-0.8,7.2l-11.8,33.7c-1,3-3.1,5.9-5.8,8
						c-2.7,2.1-5.8,3.8-9.1,3.8h-25.7l-0.5,10.9l-2.3,0.6l-16.8-28.7l15.8-30.9l2.4,0.6l-0.2,11.4l26-0.1L220.5,186L249.2,166.6z
						 M262.2,215.8c-0.3,0.3-0.7,0.6-1,0.8c-2.5,1.9-5.7,3.1-8.8,3.1l-41.3,0.1l0.1-8.6L198.5,236l13.9,23.8l0.3-9h28.1
						c2.9,0,5.5-1.5,7.7-3.3c2.2-1.8,3.9-4.3,4.8-6.8L262.2,215.8z M248.4,170.2l-24.6,16.5l18.7,30.4l9.8,0.1c2.7,0,5.2-1,7.3-2.6
						c1.9-1.4,3.5-3.3,4.7-5.4c1.3-2.4,1.8-4.8,1.7-7.1c-0.2-2.3-1-4.6-2.4-6.9L248.4,170.2z M189.3,253.4h-33.5
						c-3.3,0-6.2-0.8-8.7-2.4c-1.6-1-2.9-2.3-4-3.9l-21.2-28.6c-2.2-2.9-3.2-6.1-3.4-9.2c-0.2-3.8,0.7-7.4,2.2-9.6l14.3-21.7l-9-6.6
						l0.8-2.3l33,1.8l16.7,30.4l-1.8,1.7l-9.3-6.5L151,218.4l38.3-0.1V253.4z M139.6,238.2c-0.1-0.5-0.1-0.9-0.1-1.3
						c-0.2-3.2,0.5-6.4,2.3-9.1l5.8-8.7l-0.1-0.1l17-26.1l7,5l-13.4-24.5l-27.3-1.5l7.5,5.5L122.9,201c-1.2,1.9-2,4.9-1.8,8.2
						c0.2,2.6,1,5.3,2.9,7.8L139.6,238.2z M186.8,250.8v-29.9l-37.4,0.1l-5.4,8.1c-1.2,1.8-2,5.6-2,7.7c0.1,2.3,0.7,4.7,1.8,6.8
						c1.1,2.1,2.7,4,4.7,5.3c2,1.3,4.4,1.9,7.2,1.9H186.8z M188.4,125.5c3.1,1.9,5.3,4.6,6.8,7.8l14.3,32.7l-8.2,2.8l27.4,3.9
						l17.5-21.2l-8.7,2.7l-9.6-19.8l-0.1-0.1c-0.8-2.1-2.7-4.6-5.4-6.4c-2.1-1.4-4.8-2.3-7.9-2.3H188.4z M197.9,145.8L176,175.1
						c-9.2-7-18.4-13.9-27.6-20.9c6.1-8.2,12.2-16.5,18.4-24.6c1.7-2.5,3.9-4.3,6.3-5.4c2.6-1.1,5.4-1.2,8.2-1.2h33.4
						c3.6,0,6.8,1.1,9.3,2.7c3.1,2.1,5.3,5,6.3,7.5l8.7,17.9l10.8-3.4l1.3,2l-21.2,25.6l-34.1-4.8l-0.2-2.4l10.6-3.6L197.9,145.8z
						 M174.1,126.5c-2,0.9-3.9,2.4-5.3,4.5l-16.9,22.6l23.6,17.9l21.2-28.4l-3.9-8.8c-0.9-2.2-2.4-4.2-4.4-5.7
						c-1.9-1.5-4.2-2.6-6.6-3C179.3,125.1,176.5,125.4,174.1,126.5"/>
					<path class="st1" d="M179.7,180.4v19.7h2.5v-7.9h3.3c5.5,0,5.7-4.3,5.7-6.2c0-5.3-3.6-5.7-5.5-5.7H179.7z M182.2,182.6h3.1
						c2.4,0,3.5,1.1,3.5,3.5c0,2.4-0.9,3.9-3.5,3.9h-3.1V182.6z"/>
					<polygon class="st1" points="196.9,188.8 196.9,182.6 205.5,182.6 205.5,180.4 194.4,180.4 194.4,200.1 205.7,200.1 
						205.7,197.9 196.9,197.9 196.9,191 204.7,191 204.7,188.8 					"/>
					<polygon class="st1" points="211.3,182.6 211.3,200.1 213.8,200.1 213.8,182.6 218.6,182.6 218.6,180.4 206.5,180.4 
						206.5,182.6 					"/>
				</g>
			</g>
		</g>
	</g>
</g>
</svg>
